<svg version="1.1" id="Layer_1" xmlns="http://www.w3.org/2000/svg" xmlns:xlink="http://www.w3.org/1999/xlink" x="0px" y="0px"
	 width="100%" viewBox="0 0 768 768" enable-background="new 0 0 768 768" xml:space="preserve">
<path fill="#000000" opacity="1.000000" stroke="none" 
	d="
M439.531342,1.000000 
	C443.542511,9.402966 447.478485,17.022831 458.141541,18.480141 
	C462.743927,19.109146 467.411438,21.359331 471.409729,23.885448 
	C480.452789,29.598829 490.593628,31.292610 500.761932,32.922134 
	C512.977539,34.879742 523.921814,39.656452 534.559265,45.866852 
	C543.159241,50.887688 552.097900,55.338921 560.497559,60.745213 
	C571.162964,67.609810 581.033813,74.936867 588.003662,86.176308 
	C593.475037,94.999344 602.355347,101.392899 609.077087,109.356895 
	C619.146606,121.287506 630.236084,132.396408 639.015686,145.413925 
	C641.243408,148.717041 643.538330,152.165970 646.498169,154.751266 
	C659.606140,166.200516 665.848450,181.899109 673.911255,196.647781 
	C679.833130,207.480347 680.628723,218.628494 681.044128,230.275757 
	C681.596191,245.754883 680.331421,261.131592 679.561401,276.564056 
	C678.934998,289.118988 679.663330,301.599152 687.512390,313.318176 
	C694.407227,323.612579 700.208984,334.739349 707.756714,344.697113 
	C713.508606,352.285553 715.542664,361.346100 716.978760,370.314392 
	C718.712158,381.139008 719.604126,392.271301 716.127502,402.989685 
	C713.224121,411.940826 714.929260,421.232483 713.296082,430.236877 
	C709.249756,452.544983 705.173218,474.841736 694.365356,495.178925 
	C693.427856,496.943115 692.903198,499.084656 691.574280,500.458496 
	C678.443665,514.032593 676.021606,532.939026 667.636719,548.894409 
	C662.780212,558.135803 661.131958,569.029480 655.090088,578.079529 
	C648.127747,588.508484 639.668152,597.333801 628.977234,603.758179 
	C623.335449,607.148438 618.182861,610.928406 613.708923,615.703735 
	C608.878235,620.859863 602.958740,622.707336 596.020386,621.518066 
	C587.546936,620.065735 579.905762,621.901672 571.858521,625.258667 
	C558.164795,630.971313 544.924805,637.418213 532.100525,644.781006 
	C525.754211,648.424622 519.551819,652.282837 512.634033,654.824707 
	C509.166412,656.098816 505.613617,657.436340 501.992676,657.398315 
	C488.509735,657.256714 475.367645,661.534424 461.778076,660.176331 
	C457.315460,659.730225 452.550964,660.484131 448.883026,663.287964 
	C439.663452,670.335571 430.847443,666.551392 422.786346,661.886841 
	C407.998138,653.329285 394.137512,643.176392 378.181885,636.646973 
	C374.189545,635.013184 370.090881,633.265747 366.646912,630.743347 
	C359.437653,625.463318 351.479584,624.516907 342.959503,625.037537 
	C333.251740,625.630737 326.461212,632.398987 326.456390,642.163513 
	C326.450714,653.630920 318.333710,656.821228 309.391357,655.480286 
	C307.446320,655.188538 305.257599,654.699219 303.759949,653.547974 
	C295.379669,647.106140 285.463684,644.261475 275.746735,640.764648 
	C265.612488,637.117798 257.739807,629.613281 248.982651,623.649536 
	C237.402496,615.763245 226.753296,607.031311 213.553558,600.992920 
	C193.997665,592.046814 172.291702,585.906555 157.360092,568.621033 
	C144.575958,561.824280 139.778870,548.640259 132.545502,537.436523 
	C129.102371,532.103455 125.670387,526.845093 120.979584,522.472351 
	C119.053383,520.676758 117.260429,518.587280 115.935738,516.322144 
	C107.858971,502.511780 99.015594,489.226410 89.375412,476.459808 
	C84.494865,469.996429 82.819931,462.493591 81.928070,454.550262 
	C80.890007,445.304779 82.611412,436.355957 83.427979,427.271454 
	C84.857613,411.366486 85.681961,395.462494 93.106552,380.736298 
	C95.447357,376.093414 98.162544,371.754669 100.930008,367.432373 
	C104.907890,361.219574 106.233467,354.225128 105.513130,347.323090 
	C104.525162,337.856750 105.949219,328.683014 107.163841,319.490784 
	C108.034264,312.903320 109.262039,306.349426 109.985565,299.724976 
	C110.256058,297.248352 110.245361,294.478210 111.388062,292.407684 
	C115.216652,285.470367 115.368782,278.123322 114.858635,270.570526 
	C114.004341,257.922455 117.627190,245.913193 119.706825,233.623337 
	C122.279114,218.422012 129.253479,205.393402 136.364044,192.259079 
	C139.252243,186.924133 143.451172,182.813385 148.759277,179.555832 
	C158.230606,173.743347 164.272598,165.415085 166.515396,154.201645 
	C169.906799,137.245453 172.715164,120.150558 177.589233,103.513138 
	C179.170685,98.114937 182.187485,94.087517 186.644272,90.353500 
	C195.530502,82.908379 203.072449,73.912292 212.766418,67.318123 
	C216.477737,64.793579 219.986359,61.938469 224.133835,60.156319 
	C235.630432,55.216278 245.133636,47.481907 254.066269,38.953217 
	C255.114059,37.952808 256.369995,36.499405 256.409515,35.221394 
	C256.693787,26.020361 263.449646,19.968910 267.436615,12.666946 
	C270.810455,6.488018 277.941010,6.519458 284.212250,5.689078 
	C296.632202,4.044547 309.204834,6.120192 321.595764,4.085317 
	C323.597076,3.756650 326.056061,4.156064 327.026367,1.277269 
	C364.354218,1.000000 401.708466,1.000000 439.531342,1.000000 
M380.541107,144.144897 
	C349.410004,145.073700 319.979340,152.826797 292.256500,166.821594 
	C262.345123,181.921173 222.155975,214.151825 221.248810,223.315887 
	C223.912201,223.171036 225.916672,221.610428 227.936478,220.191132 
	C240.780029,211.166153 254.225632,203.216003 268.461945,196.546738 
	C292.150696,185.449326 316.912994,178.940063 343.142181,178.757126 
	C358.153473,178.652405 372.991302,180.514221 387.688721,183.651001 
	C414.792694,189.435608 440.533447,198.788773 464.026489,213.581268 
	C488.878387,229.229431 509.298615,249.483963 525.745789,273.930511 
	C539.331543,294.123962 548.282898,315.693573 549.455383,340.251923 
	C549.658508,344.505646 549.651917,349.213226 553.214050,352.692352 
	C556.241760,351.170105 555.958130,348.394165 556.474854,346.077667 
	C556.943237,343.977722 556.921936,341.768341 557.392761,339.669189 
	C561.020386,323.495270 562.647217,307.144867 561.781372,290.578888 
	C560.865356,273.054352 556.459961,256.442596 548.348877,240.867477 
	C544.469971,233.419022 541.465210,225.739609 540.635437,217.297791 
	C540.285034,213.732773 538.713806,210.639755 536.410950,207.874985 
	C524.651794,193.757263 510.520599,182.696762 494.592773,173.502151 
	C459.536774,153.265442 421.997925,143.207230 380.541107,144.144897 
M192.109146,283.573730 
	C182.581955,297.343658 177.092728,312.667267 173.581451,328.980743 
	C168.146286,354.232819 167.879776,379.497131 171.902573,404.877594 
	C176.947159,436.704529 189.753952,465.349548 207.838974,491.826721 
	C224.267807,515.879150 243.957764,536.663696 268.243225,552.927917 
	C277.989044,559.454834 288.942230,564.534546 294.485352,565.024963 
	C292.300140,563.286255 290.229004,561.634888 288.154419,559.988037 
	C264.710663,541.377991 244.380890,520.223328 230.726303,493.077332 
	C210.742065,453.347534 203.820251,411.699615 212.208008,368.033905 
	C218.354004,336.038544 230.199326,306.138031 248.811890,279.077179 
	C276.955475,238.159119 314.544189,211.782242 363.971497,203.350113 
	C368.866516,202.515030 373.831055,202.087296 378.763336,201.470505 
	C378.137238,200.306107 377.576904,199.910599 376.965027,199.800003 
	C372.382538,198.971680 367.818909,197.878342 363.195831,197.460693 
	C325.544189,194.059387 290.918304,203.659882 258.454346,222.227875 
	C231.848984,237.445023 210.182663,258.066559 192.109146,283.573730 
M481.247009,411.730774 
	C483.461395,409.971100 485.800446,408.346252 487.871704,406.431702 
	C522.490417,374.431488 522.495361,314.937286 487.852661,282.975250 
	C473.249451,269.502045 456.282104,260.892090 436.321686,258.855133 
	C423.869019,257.584320 411.349335,258.583435 398.869446,258.040466 
	C395.767700,257.905548 394.314270,259.703278 394.311096,262.714417 
	C394.299011,274.210724 394.305145,285.707001 394.304504,297.203308 
	C394.304321,300.274414 395.985107,301.508026 398.899994,302.008972 
	C406.199585,303.263519 413.533508,302.467712 420.846832,302.667847 
	C429.958649,302.917206 438.669891,304.712585 446.854553,308.810974 
	C462.910889,316.851135 471.974213,334.430725 469.129059,352.010773 
	C466.498871,368.262360 449.959778,381.975922 432.240051,382.281952 
	C421.914154,382.460297 411.580444,382.151489 401.250092,382.125122 
	C395.291077,382.109894 394.186279,383.145020 394.151215,389.075836 
	C394.090149,399.405914 394.153534,409.736847 394.197662,420.067291 
	C394.225983,426.692780 394.963287,427.481873 401.657623,427.651642 
	C412.483185,427.926147 423.304779,428.071259 434.140472,427.773865 
	C451.288879,427.303253 466.885834,422.506104 481.247009,411.730774 
M324.661835,571.842102 
	C333.038635,577.891479 342.924255,579.388184 352.698975,581.546143 
	C386.893250,589.094849 420.539948,586.615051 453.694214,576.247742 
	C495.090240,563.303345 529.760071,539.872009 558.619141,507.657593 
	C560.673523,505.364319 562.665527,502.993134 564.402100,498.942932 
	C561.533875,501.058441 559.637512,502.361115 557.845642,503.794495 
	C546.760376,512.661926 535.020752,520.657654 522.520447,527.272644 
	C475.667511,552.066467 426.604431,555.150391 376.261841,540.299500 
	C349.880646,532.517090 325.446747,520.392578 303.606720,503.446442 
	C285.098785,489.085846 267.918091,473.404236 255.192993,453.437927 
	C242.083603,432.868591 234.442200,410.379181 231.690155,386.182709 
	C231.463013,384.185699 231.225342,382.154205 229.730911,380.096954 
	C227.227875,389.194977 227.889557,422.363556 230.259766,434.286530 
	C236.682678,466.595947 249.874084,495.617004 271.101013,520.979248 
	C283.301056,535.556030 298.795471,546.382385 312.902832,558.786133 
	C317.184082,562.550354 321.363373,566.292114 324.661835,571.842102 
M497.649933,483.163208 
	C468.841919,509.148071 434.305725,521.151306 395.931427,523.620422 
	C396.884430,526.813965 398.768951,526.589417 400.327118,526.840820 
	C418.428558,529.761780 436.522522,532.205994 454.950012,529.733093 
	C477.949280,526.646729 499.762756,520.234863 520.085693,508.765869 
	C543.100098,495.777985 561.331177,477.331299 578.783630,458.024261 
	C588.091492,447.727264 595.874634,436.393066 599.754089,422.679291 
	C604.818298,404.777802 607.477356,386.518341 607.556152,368.013977 
	C607.702881,333.572052 600.389526,300.618134 585.801636,269.373352 
	C584.067017,265.657990 582.473206,261.657593 579.186829,258.323090 
	C577.631653,261.104950 578.421997,263.197723 578.717834,265.267090 
	C579.846191,273.159210 580.917603,281.043488 581.388184,289.024170 
	C582.421204,306.542236 578.781128,323.392090 575.075928,340.332184 
	C572.750000,350.966339 570.139160,361.268433 564.488220,370.763062 
	C561.101501,376.453369 559.388367,383.019928 557.079407,389.268188 
	C551.372742,404.710846 546.082214,420.358307 537.685852,434.669312 
	C527.061584,452.777557 513.861267,468.751831 497.649933,483.163208 
M328.974030,363.192535 
	C328.774261,365.012146 328.402161,366.831573 328.400116,368.651398 
	C328.361420,403.289673 328.389130,437.928040 328.331787,472.566254 
	C328.325012,476.650146 330.089081,478.152649 334.113831,478.054321 
	C343.267822,477.830780 352.429260,477.795105 361.586456,477.859406 
	C369.226624,477.913116 369.594910,477.544342 369.723969,469.705566 
	C370.176178,442.237946 368.888062,414.783752 369.441803,387.304749 
	C369.884338,365.342285 369.039734,343.356018 368.929199,321.379547 
	C368.836273,302.903046 368.502167,284.425354 369.574493,265.952545 
	C369.988129,258.826599 368.729828,257.964294 361.486267,258.061401 
	C356.325470,258.130585 351.152863,258.358368 346.006287,258.100708 
	C342.351471,257.917725 339.673492,259.199493 337.094604,261.623260 
	C321.698486,276.093323 305.964905,290.210999 291.545135,305.691986 
	C290.654938,306.647705 289.510834,307.407654 288.385834,308.097076 
	C282.889221,311.465790 282.457947,312.942078 286.909271,317.812195 
	C291.655640,323.005066 295.911438,328.499939 299.463348,334.551422 
	C301.529388,338.071472 304.230286,338.431976 307.378906,336.145966 
	C312.094025,332.722565 316.720947,329.177643 321.433899,325.751190 
	C323.121704,324.524170 324.704987,322.817566 327.670685,323.712097 
	C329.715454,336.414185 329.501251,349.324829 328.974030,363.192535 
M281.092529,360.640106 
	C279.778900,360.750671 278.458893,360.811584 277.152710,360.979919 
	C269.075378,362.020813 266.285431,369.250092 266.579895,375.577698 
	C266.913635,382.748779 272.815033,387.753143 279.936066,387.629425 
	C286.440796,387.516479 291.844666,382.511505 292.670807,375.834808 
	C293.567719,368.586151 289.696289,363.226898 281.092529,360.640106 
z"/>
</svg>